<svg id="Calque_1" data-name="Calque 1" xmlns="http://www.w3.org/2000/svg" viewBox="0 0 16 16">
<defs>
<style>.cls-1 { fill: rgb(175, 113, 247); }
</style>
</defs>
<path class="cls-1" d="M10.02,10.35l-.08.12-.52.82a.229.229,0,0,1-.39,0l-.08-.14c-.01-.01-.01-.02-.02-.03l-.53-.65-.08-.1A.224.224,0,0,1,8.49,10H9.83A.229.229,0,0,1,10.02,10.35Z"/><circle class="cls-1" cx="11" cy="8" r="1"/><circle class="cls-1" cx="6" cy="8" r="1"/><path class="cls-1" d="M11.44,0h-.77l-.23,3.44-.23-.08a4.9,4.9,0,0,0-.89-.24A5.544,5.544,0,0,0,8.17,3H7.98l-.31.03L8.96,0H4.56A4.558,4.558,0,0,0,0,4.56v6.88A4.558,4.558,0,0,0,4.56,16h6.88A4.558,4.558,0,0,0,16,11.44V4.56A4.558,4.558,0,0,0,11.44,0ZM14,14H3.99c-.95-.16-.94-.22-.97-.28a6.123,6.123,0,0,1-.07-6.66.213.213,0,0,0,.03-.16L2.02,3.36a.266.266,0,0,1,.39-.32L5.2,4.85a.188.188,0,0,0,.19.02,5.707,5.707,0,0,1,1.59-.52,4.938,4.938,0,0,1,.87-.08A.757.757,0,0,1,8,4.26h.04a5.286,5.286,0,0,1,1.13.12,5.236,5.236,0,0,1,.86.24c.15.05.3.12.45.18a.172.172,0,0,0,.17,0l2.53-1.18a.269.269,0,0,1,.4.32l-.6,2.91a.206.206,0,0,0,.03.15A6.068,6.068,0,0,1,14,10.34a5.622,5.622,0,0,1-.98,3.22C12.98,13.61,13.18,13.84,14,14Z"/></svg>